<mxfile host="Electron" agent="Mozilla/5.0 (Macintosh; Intel Mac OS X 10_15_7) AppleWebKit/537.36 (KHTML, like Gecko) draw.io/26.1.1 Chrome/132.0.6834.210 Electron/34.3.3 Safari/537.36" version="26.1.1">
  <diagram id="C5RBs43oDa-KdzZeNtuy" name="Page-1">
    <mxGraphModel dx="1298" dy="908" grid="1" gridSize="10" guides="1" tooltips="1" connect="1" arrows="1" fold="1" page="1" pageScale="1" pageWidth="827" pageHeight="1169" math="0" shadow="0">
      <root>
        <mxCell id="WIyWlLk6GJQsqaUBKTNV-0" />
        <mxCell id="WIyWlLk6GJQsqaUBKTNV-1" parent="WIyWlLk6GJQsqaUBKTNV-0" />
        <mxCell id="VkVBhUJ5O_2J1W-WgivY-2" style="edgeStyle=orthogonalEdgeStyle;rounded=0;orthogonalLoop=1;jettySize=auto;html=1;" edge="1" parent="WIyWlLk6GJQsqaUBKTNV-1" source="VkVBhUJ5O_2J1W-WgivY-0" target="VkVBhUJ5O_2J1W-WgivY-1">
          <mxGeometry relative="1" as="geometry" />
        </mxCell>
        <mxCell id="VkVBhUJ5O_2J1W-WgivY-0" value="Start" style="strokeWidth=2;html=1;shape=mxgraph.flowchart.terminator;whiteSpace=wrap;" vertex="1" parent="WIyWlLk6GJQsqaUBKTNV-1">
          <mxGeometry x="210" y="200" width="100" height="60" as="geometry" />
        </mxCell>
        <mxCell id="VkVBhUJ5O_2J1W-WgivY-5" style="edgeStyle=orthogonalEdgeStyle;rounded=0;orthogonalLoop=1;jettySize=auto;html=1;" edge="1" parent="WIyWlLk6GJQsqaUBKTNV-1" source="VkVBhUJ5O_2J1W-WgivY-1" target="VkVBhUJ5O_2J1W-WgivY-3">
          <mxGeometry relative="1" as="geometry" />
        </mxCell>
        <mxCell id="VkVBhUJ5O_2J1W-WgivY-1" value="Create Employee 1" style="rounded=1;whiteSpace=wrap;html=1;absoluteArcSize=1;arcSize=14;strokeWidth=2;" vertex="1" parent="WIyWlLk6GJQsqaUBKTNV-1">
          <mxGeometry x="185" y="310" width="150" height="60" as="geometry" />
        </mxCell>
        <mxCell id="VkVBhUJ5O_2J1W-WgivY-6" style="edgeStyle=orthogonalEdgeStyle;rounded=0;orthogonalLoop=1;jettySize=auto;html=1;" edge="1" parent="WIyWlLk6GJQsqaUBKTNV-1" source="VkVBhUJ5O_2J1W-WgivY-3" target="VkVBhUJ5O_2J1W-WgivY-4">
          <mxGeometry relative="1" as="geometry" />
        </mxCell>
        <mxCell id="VkVBhUJ5O_2J1W-WgivY-3" value="Create Employee 2" style="rounded=1;whiteSpace=wrap;html=1;absoluteArcSize=1;arcSize=14;strokeWidth=2;" vertex="1" parent="WIyWlLk6GJQsqaUBKTNV-1">
          <mxGeometry x="185" y="420" width="150" height="60" as="geometry" />
        </mxCell>
        <mxCell id="VkVBhUJ5O_2J1W-WgivY-12" style="edgeStyle=orthogonalEdgeStyle;rounded=0;orthogonalLoop=1;jettySize=auto;html=1;" edge="1" parent="WIyWlLk6GJQsqaUBKTNV-1" source="VkVBhUJ5O_2J1W-WgivY-4" target="VkVBhUJ5O_2J1W-WgivY-9">
          <mxGeometry relative="1" as="geometry" />
        </mxCell>
        <mxCell id="VkVBhUJ5O_2J1W-WgivY-4" value="Create Employee 3" style="rounded=1;whiteSpace=wrap;html=1;absoluteArcSize=1;arcSize=14;strokeWidth=2;" vertex="1" parent="WIyWlLk6GJQsqaUBKTNV-1">
          <mxGeometry x="185" y="530" width="150" height="60" as="geometry" />
        </mxCell>
        <mxCell id="VkVBhUJ5O_2J1W-WgivY-13" style="edgeStyle=orthogonalEdgeStyle;rounded=0;orthogonalLoop=1;jettySize=auto;html=1;" edge="1" parent="WIyWlLk6GJQsqaUBKTNV-1" source="VkVBhUJ5O_2J1W-WgivY-9" target="VkVBhUJ5O_2J1W-WgivY-10">
          <mxGeometry relative="1" as="geometry" />
        </mxCell>
        <mxCell id="VkVBhUJ5O_2J1W-WgivY-9" value="Display Employee 1" style="rounded=1;whiteSpace=wrap;html=1;absoluteArcSize=1;arcSize=14;strokeWidth=2;" vertex="1" parent="WIyWlLk6GJQsqaUBKTNV-1">
          <mxGeometry x="185" y="640" width="150" height="60" as="geometry" />
        </mxCell>
        <mxCell id="VkVBhUJ5O_2J1W-WgivY-14" style="edgeStyle=orthogonalEdgeStyle;rounded=0;orthogonalLoop=1;jettySize=auto;html=1;" edge="1" parent="WIyWlLk6GJQsqaUBKTNV-1" source="VkVBhUJ5O_2J1W-WgivY-10" target="VkVBhUJ5O_2J1W-WgivY-11">
          <mxGeometry relative="1" as="geometry" />
        </mxCell>
        <mxCell id="VkVBhUJ5O_2J1W-WgivY-10" value="Display Employee 2" style="rounded=1;whiteSpace=wrap;html=1;absoluteArcSize=1;arcSize=14;strokeWidth=2;" vertex="1" parent="WIyWlLk6GJQsqaUBKTNV-1">
          <mxGeometry x="185" y="750" width="150" height="60" as="geometry" />
        </mxCell>
        <mxCell id="VkVBhUJ5O_2J1W-WgivY-11" value="Display Employee 3" style="rounded=1;whiteSpace=wrap;html=1;absoluteArcSize=1;arcSize=14;strokeWidth=2;" vertex="1" parent="WIyWlLk6GJQsqaUBKTNV-1">
          <mxGeometry x="185" y="860" width="150" height="60" as="geometry" />
        </mxCell>
        <mxCell id="VkVBhUJ5O_2J1W-WgivY-15" value="End" style="strokeWidth=2;html=1;shape=mxgraph.flowchart.terminator;whiteSpace=wrap;" vertex="1" parent="WIyWlLk6GJQsqaUBKTNV-1">
          <mxGeometry x="210" y="970" width="100" height="60" as="geometry" />
        </mxCell>
        <mxCell id="VkVBhUJ5O_2J1W-WgivY-16" style="edgeStyle=orthogonalEdgeStyle;rounded=0;orthogonalLoop=1;jettySize=auto;html=1;entryX=0.5;entryY=0;entryDx=0;entryDy=0;entryPerimeter=0;" edge="1" parent="WIyWlLk6GJQsqaUBKTNV-1" source="VkVBhUJ5O_2J1W-WgivY-11" target="VkVBhUJ5O_2J1W-WgivY-15">
          <mxGeometry relative="1" as="geometry" />
        </mxCell>
      </root>
    </mxGraphModel>
  </diagram>
</mxfile>
